<svg width="35" height="31" viewBox="0 0 35 31" fill="none" xmlns="http://www.w3.org/2000/svg">
<path d="M26.1881 30.0194C25.3641 30.0194 24.3069 29.7866 22.9854 29.1019L18.3367 26.6781C17.8547 26.4317 16.9218 26.4317 16.4554 26.6781L11.7912 29.1019C9.03929 30.5397 7.42235 29.9646 6.69162 29.499C5.97644 29.0334 4.85702 27.8421 5.58775 25.1034L6.69162 20.8995C6.816 20.4613 6.56724 19.7082 6.1941 19.3795L2.33833 15.9835C0.410437 14.2855 0.565911 12.834 0.830219 12.1219C1.09453 11.4098 1.93409 10.15 4.60826 9.75294L9.56791 9.02718C10.0343 8.95871 10.7029 8.52052 10.905 8.1508L13.6569 3.31699C14.9007 1.11234 16.5332 0.783691 17.3883 0.783691C18.2434 0.783691 19.8759 1.11234 21.1197 3.31699L23.856 8.1371C24.0737 8.50683 24.7422 8.94502 25.2086 9.01349L30.1683 9.73924C32.858 10.1364 33.6976 11.3962 33.9463 12.1082C34.1951 12.8203 34.3506 14.2718 32.4382 15.9698L28.5825 19.3795C28.2093 19.7082 27.9761 20.4476 28.0849 20.8995L29.1888 25.1034C29.904 27.8421 28.8001 29.0334 28.0849 29.499C27.6962 29.7455 27.0743 30.0194 26.1881 30.0194ZM17.3883 24.4324C18.1501 24.4324 18.9119 24.5967 19.5183 24.9117L24.167 27.3354C25.5196 28.0475 26.3747 28.0475 26.7012 27.8421C27.0277 27.6367 27.2609 26.9109 26.9189 25.569L25.815 21.3651C25.5196 20.2285 26.0016 18.7633 26.9344 17.928L30.7902 14.532C31.552 13.861 31.8941 13.2037 31.7386 12.7519C31.5676 12.2999 30.8524 11.9302 29.7952 11.7796L24.8355 11.0538C23.6384 10.8758 22.3324 10.0268 21.7882 9.06826L19.0518 4.24815C18.5543 3.37176 17.9324 2.85141 17.3883 2.85141C16.8441 2.85141 16.2222 3.37176 15.7402 4.24815L12.9884 9.06826C12.4442 10.0268 11.1382 10.8758 9.94105 11.0538L4.99695 11.7796C3.93972 11.9302 3.22453 12.2999 3.05351 12.7519C2.88249 13.2037 3.24008 13.8747 4.00191 14.532L7.85768 17.928C8.79053 18.7496 9.2725 20.2285 8.9771 21.3651L7.87323 25.569C7.51564 26.9246 7.7644 27.6367 8.0909 27.8421C8.41739 28.0475 9.25696 28.0338 10.6251 27.3354L15.2738 24.9117C15.8646 24.5967 16.6264 24.4324 17.3883 24.4324Z" fill="#292D32"/>
</svg>
