<svg width="37" height="33" viewBox="0 0 37 33" fill="none" xmlns="http://www.w3.org/2000/svg">
<path fill-rule="evenodd" clip-rule="evenodd" d="M18.2814 0.700928C8.41322 0.700928 0.42041 7.90468 0.42041 16.7987C0.42041 23.922 5.53313 29.9385 12.6329 32.0714C13.5259 32.2123 13.8608 31.7294 13.8608 31.3068C13.8608 30.9245 13.8385 29.6568 13.8385 28.3086C9.35092 29.0531 8.18996 27.3226 7.83274 26.4171C7.6318 25.9543 6.76107 24.5256 6.00198 24.1433C5.37684 23.8415 4.48379 23.0969 5.97965 23.0768C7.38621 23.0567 8.39089 24.2439 8.72579 24.7268C10.3333 27.1616 12.9008 26.4775 13.9278 26.0549C14.0841 25.0086 14.5529 24.3043 15.0665 23.9018C11.0924 23.4994 6.93968 22.111 6.93968 15.9536C6.93968 14.2029 7.6318 12.7541 8.77044 11.6273C8.59183 11.2248 7.96669 9.57482 8.94905 7.36138C8.94905 7.36138 10.4449 6.93881 13.8608 9.0114C15.2897 8.6492 16.8079 8.4681 18.3261 8.4681C19.8443 8.4681 21.3625 8.6492 22.7913 9.0114C26.2073 6.91869 27.7031 7.36138 27.7031 7.36138C28.6855 9.57482 28.0603 11.2248 27.8817 11.6273C29.0204 12.7541 29.7125 14.1828 29.7125 15.9536C29.7125 22.1311 25.5375 23.4994 21.5634 23.9018C22.2109 24.4049 22.769 25.3708 22.769 26.8799C22.769 29.033 22.7467 30.7635 22.7467 31.3068C22.7467 31.7294 23.0816 32.2324 23.9746 32.0714C27.5204 30.9926 30.6015 28.9388 32.7842 26.199C34.967 23.4593 36.1415 20.1716 36.1425 16.7987C36.1425 7.90468 28.1497 0.700928 18.2814 0.700928Z" fill="black"/>
</svg>
