<svg width="34" height="31" viewBox="0 0 34 31" fill="none" xmlns="http://www.w3.org/2000/svg">
<path d="M25.8549 30.0194C25.0309 30.0194 23.9736 29.7866 22.6521 29.1019L18.0034 26.6781C17.5214 26.4317 16.5886 26.4317 16.1222 26.6781L11.4579 29.1019C8.70604 30.5397 7.0891 29.9646 6.35837 29.499C5.64319 29.0334 4.52377 27.8421 5.2545 25.1034L6.35837 20.8995C6.48275 20.4613 6.23399 19.7082 5.86085 19.3795L2.00507 15.9835C0.0771847 14.2855 0.232659 12.834 0.496967 12.1219C0.761274 11.4098 1.60084 10.15 4.27501 9.75294L9.23465 9.02718C9.70108 8.95871 10.3696 8.52052 10.5717 8.1508L13.3236 3.31699C14.5674 1.11234 16.1999 0.783691 17.055 0.783691C17.9101 0.783691 19.5426 1.11234 20.7864 3.31699L23.5228 8.1371C23.7404 8.50683 24.409 8.94502 24.8754 9.01349L29.835 9.73924C32.5248 10.1364 33.3643 11.3962 33.6131 12.1082C33.8618 12.8203 34.0173 14.2718 32.105 15.9698L28.2492 19.3795C27.8761 19.7082 27.6428 20.4476 27.7517 20.8995L28.8556 25.1034C29.5707 27.8421 28.4669 29.0334 27.7517 29.499C27.363 29.7455 26.7411 30.0194 25.8549 30.0194ZM17.055 24.4324C17.8168 24.4324 18.5787 24.5967 19.185 24.9117L23.8337 27.3354C25.1863 28.0475 26.0415 28.0475 26.368 27.8421C26.6945 27.6367 26.9277 26.9109 26.5856 25.569L25.4817 21.3651C25.1863 20.2285 25.6683 18.7633 26.6012 17.928L30.4569 14.532C31.2188 13.861 31.5608 13.2037 31.4053 12.7519C31.2343 12.2999 30.5191 11.9302 29.4619 11.7796L24.5023 11.0538C23.3051 10.8758 21.9991 10.0268 21.4549 9.06826L18.7186 4.24815C18.2211 3.37176 17.5992 2.85141 17.055 2.85141C16.5108 2.85141 15.8889 3.37176 15.407 4.24815L12.6551 9.06826C12.1109 10.0268 10.805 10.8758 9.60779 11.0538L4.66369 11.7796C3.60646 11.9302 2.89128 12.2999 2.72026 12.7519C2.54923 13.2037 2.90683 13.8747 3.66865 14.532L7.52443 17.928C8.45728 18.7496 8.93925 20.2285 8.64385 21.3651L7.53998 25.569C7.18239 26.9246 7.43115 27.6367 7.75764 27.8421C8.08414 28.0475 8.9237 28.0338 10.2919 27.3354L14.9406 24.9117C15.5314 24.5967 16.2932 24.4324 17.055 24.4324Z" fill="#292D32"/>
</svg>
