<svg width="37" height="33" viewBox="0 0 37 33" fill="none" xmlns="http://www.w3.org/2000/svg">
<path fill-rule="evenodd" clip-rule="evenodd" d="M18.6149 0.700928C8.74671 0.700928 0.753906 7.90468 0.753906 16.7987C0.753906 23.922 5.86662 29.9385 12.9664 32.0714C13.8594 32.2123 14.1943 31.7294 14.1943 31.3068C14.1943 30.9245 14.172 29.6568 14.172 28.3086C9.68442 29.0531 8.52345 27.3226 8.16623 26.4171C7.96529 25.9543 7.09457 24.5256 6.33548 24.1433C5.71034 23.8415 4.81729 23.0969 6.31315 23.0768C7.71971 23.0567 8.72439 24.2439 9.05928 24.7268C10.6668 27.1616 13.2343 26.4775 14.2613 26.0549C14.4176 25.0086 14.8864 24.3043 15.3999 23.9018C11.4259 23.4994 7.27318 22.111 7.27318 15.9536C7.27318 14.2029 7.9653 12.7541 9.10394 11.6273C8.92533 11.2248 8.30019 9.57482 9.28255 7.36138C9.28255 7.36138 10.7784 6.93881 14.1943 9.0114C15.6232 8.6492 17.1414 8.4681 18.6596 8.4681C20.1778 8.4681 21.696 8.6492 23.1248 9.0114C26.5408 6.91869 28.0366 7.36138 28.0366 7.36138C29.019 9.57482 28.3938 11.2248 28.2152 11.6273C29.3539 12.7541 30.046 14.1828 30.046 15.9536C30.046 22.1311 25.871 23.4994 21.8969 23.9018C22.5444 24.4049 23.1025 25.3708 23.1025 26.8799C23.1025 29.033 23.0802 30.7635 23.0802 31.3068C23.0802 31.7294 23.4151 32.2324 24.3081 32.0714C27.8539 30.9926 30.935 28.9388 33.1177 26.199C35.3005 23.4593 36.475 20.1716 36.476 16.7987C36.476 7.90468 28.4831 0.700928 18.6149 0.700928Z" fill="black"/>
</svg>
