<svg width="36" height="33" viewBox="0 0 36 33" fill="none" xmlns="http://www.w3.org/2000/svg">
<path fill-rule="evenodd" clip-rule="evenodd" d="M17.9479 0.700928C8.07972 0.700928 0.0869141 7.90468 0.0869141 16.7987C0.0869141 23.922 5.19963 29.9385 12.2994 32.0714C13.1924 32.2123 13.5273 31.7294 13.5273 31.3068C13.5273 30.9245 13.505 29.6568 13.505 28.3086C9.01743 29.0531 7.85646 27.3226 7.49924 26.4171C7.2983 25.9543 6.42758 24.5256 5.66849 24.1433C5.04335 23.8415 4.1503 23.0969 5.64616 23.0768C7.05272 23.0567 8.0574 24.2439 8.39229 24.7268C9.99979 27.1616 12.5673 26.4775 13.5943 26.0549C13.7506 25.0086 14.2195 24.3043 14.733 23.9018C10.7589 23.4994 6.60619 22.111 6.60619 15.9536C6.60619 14.2029 7.2983 12.7541 8.43694 11.6273C8.25833 11.2248 7.6332 9.57482 8.61556 7.36138C8.61556 7.36138 10.1114 6.93881 13.5273 9.0114C14.9562 8.6492 16.4744 8.4681 17.9926 8.4681C19.5108 8.4681 21.029 8.6492 22.4579 9.0114C25.8738 6.91869 27.3696 7.36138 27.3696 7.36138C28.352 9.57482 27.7269 11.2248 27.5482 11.6273C28.6869 12.7541 29.379 14.1828 29.379 15.9536C29.379 22.1311 25.204 23.4994 21.2299 23.9018C21.8774 24.4049 22.4355 25.3708 22.4355 26.8799C22.4355 29.033 22.4132 30.7635 22.4132 31.3068C22.4132 31.7294 22.7481 32.2324 23.6411 32.0714C27.1869 30.9926 30.268 28.9388 32.4507 26.199C34.6335 23.4593 35.808 20.1716 35.809 16.7987C35.809 7.90468 27.8162 0.700928 17.9479 0.700928Z" fill="black"/>
</svg>
