<svg width="34" height="31" viewBox="0 0 34 31" fill="none" xmlns="http://www.w3.org/2000/svg">
<path d="M25.5214 30.0194C24.6974 30.0194 23.6401 29.7866 22.3186 29.1019L17.6699 26.6781C17.1879 26.4317 16.2551 26.4317 15.7887 26.6781L11.1244 29.1019C8.37254 30.5397 6.75561 29.9646 6.02487 29.499C5.30969 29.0334 4.19027 27.8421 4.921 25.1034L6.02487 20.8995C6.14925 20.4613 5.90049 19.7082 5.52735 19.3795L1.67158 15.9835C-0.256311 14.2855 -0.100837 12.834 0.16347 12.1219C0.427778 11.4098 1.26734 10.15 3.94151 9.75294L8.90116 9.02718C9.36758 8.95871 10.0361 8.52052 10.2382 8.1508L12.9901 3.31699C14.2339 1.11234 15.8664 0.783691 16.7215 0.783691C17.5766 0.783691 19.2091 1.11234 20.4529 3.31699L23.1893 8.1371C23.4069 8.50683 24.0755 8.94502 24.5419 9.01349L29.5015 9.73924C32.1913 10.1364 33.0308 11.3962 33.2796 12.1082C33.5283 12.8203 33.6838 14.2718 31.7715 15.9698L27.9157 19.3795C27.5426 19.7082 27.3094 20.4476 27.4182 20.8995L28.5221 25.1034C29.2372 27.8421 28.1334 29.0334 27.4182 29.499C27.0295 29.7455 26.4076 30.0194 25.5214 30.0194ZM16.7215 24.4324C17.4833 24.4324 18.2452 24.5967 18.8515 24.9117L23.5002 27.3354C24.8529 28.0475 25.708 28.0475 26.0345 27.8421C26.361 27.6367 26.5942 26.9109 26.2521 25.569L25.1483 21.3651C24.8528 20.2285 25.3348 18.7633 26.2677 17.928L30.1234 14.532C30.8853 13.861 31.2273 13.2037 31.0718 12.7519C30.9008 12.2999 30.1856 11.9302 29.1284 11.7796L24.1688 11.0538C22.9716 10.8758 21.6656 10.0268 21.1215 9.06826L18.3851 4.24815C17.8876 3.37176 17.2657 2.85141 16.7215 2.85141C16.1774 2.85141 15.5555 3.37176 15.0735 4.24815L12.3216 9.06826C11.7774 10.0268 10.4715 10.8758 9.2743 11.0538L4.3302 11.7796C3.27297 11.9302 2.55778 12.2999 2.38676 12.7519C2.21574 13.2037 2.57333 13.8747 3.33516 14.532L7.19093 17.928C8.12378 18.7496 8.60576 20.2285 8.31035 21.3651L7.20648 25.569C6.84889 26.9246 7.09765 27.6367 7.42415 27.8421C7.75064 28.0475 8.59021 28.0338 9.95839 27.3354L14.6071 24.9117C15.1979 24.5967 15.9597 24.4324 16.7215 24.4324Z" fill="#292D32"/>
</svg>
