<svg width="1440" height="63" viewBox="0 0 1440 63" fill="none" xmlns="http://www.w3.org/2000/svg">
<path fill-rule="evenodd" clip-rule="evenodd" d="M96.464 19.5994C96.3803 19.5275 96.2764 19.4883 96.1694 19.4883C96.0623 19.4883 95.9584 19.5275 95.8747 19.5994L85.9597 28.1392C85.9042 28.187 85.8593 28.2476 85.8286 28.3166C85.7979 28.3856 85.782 28.4612 85.7822 28.5377V42.8094C85.7822 43.09 85.9937 43.3177 86.2543 43.3177H91.4479V32.6429C91.4479 32.2385 91.5971 31.8506 91.8628 31.5646C92.1284 31.2786 92.4887 31.118 92.8643 31.118H99.4744C99.85 31.118 100.21 31.2786 100.476 31.5646C100.742 31.8506 100.891 32.2385 100.891 32.6429V43.3177H106.084C106.21 43.3177 106.33 43.2641 106.418 43.1688C106.507 43.0735 106.557 42.9442 106.557 42.8094V28.5357C106.556 28.4595 106.54 28.3843 106.51 28.3157C106.479 28.2471 106.434 28.1867 106.379 28.1392L96.464 19.5994ZM94.1033 17.2184C94.6894 16.7134 95.4177 16.4382 96.1684 16.4382C96.9191 16.4382 97.6475 16.7134 98.2336 17.2184L108.149 25.7582C108.932 26.4333 109.389 27.456 109.389 28.5377V42.8094C109.389 43.7531 109.041 44.6581 108.421 45.3254C107.802 45.9927 106.961 46.3676 106.084 46.3676H99.4744C99.0987 46.3676 98.7384 46.207 98.4728 45.921C98.2072 45.635 98.0579 45.2471 98.0579 44.8427V34.1679H94.2808V44.8427C94.2808 45.2471 94.1315 45.635 93.8659 45.921C93.6003 46.207 93.24 46.3676 92.8643 46.3676H86.2543C85.3778 46.3676 84.5371 45.9927 83.9173 45.3254C83.2975 44.6581 82.9493 43.7531 82.9493 42.8094V28.5357C82.9493 27.456 83.4063 26.4333 84.1901 25.7582L94.1033 17.2184Z" fill="#3C3A3A"/>
<path d="M45.1819 43.5129L33.1797 31.426L45.1819 19.3391" stroke="#3C3A3A" stroke-width="7.92606" stroke-linecap="round" stroke-linejoin="round"/>
</svg>
